<svg width="454" height="542" viewBox="0 0 454 542" fill="none" xmlns="http://www.w3.org/2000/svg">
<path d="M87.3589 74C87.3589 61.3 95.5386 49.8 108.299 44.7L212.999 2.7C221.942 -0.9 232.085 -0.9 241.028 2.7L345.728 44.7C358.38 49.8 366.559 61.3 366.559 74V173.1C366.559 243.8 304.066 301.1 226.959 301.1C149.852 301.1 87.3589 243.8 87.3589 173.1V74ZM314.209 157.1H192.495H192.059H139.709V173.1C139.709 217.3 178.753 253.1 226.959 253.1C275.165 253.1 314.209 217.3 314.209 173.1V157.1ZM209.509 45.1V61.1H192.059C187.26 61.1 183.334 64.7 183.334 69.1V85.1C183.334 89.5 187.26 93.1 192.059 93.1H209.509V109.1C209.509 113.5 213.435 117.1 218.234 117.1H235.684C240.483 117.1 244.409 113.5 244.409 109.1V93.1H261.859C266.658 93.1 270.584 89.5 270.584 85.1V69.1C270.584 64.7 266.658 61.1 261.859 61.1H244.409V45.1C244.409 40.7 240.483 37.1 235.684 37.1H218.234C213.435 37.1 209.509 40.7 209.509 45.1Z" fill="#5A9367"/>
<path d="M113.534 349.3C121.605 345.9 131.093 347.2 138.182 352.1H137.964L211.036 402.3C220.307 408.7 233.176 408.7 242.446 402.3L315.518 352.1C322.607 347.2 332.096 345.9 340.166 349.3C407.131 377.4 453.701 439.4 453.701 511.4C453.701 527.8 439.195 541.1 421.309 541.1H32.3916C14.5053 541.1 0 527.8 0 511.4C0 439.5 46.5698 377.5 113.534 349.3Z" fill="#437A57"/>
</svg>
